HIERARCHY
ROOT Hips
{
    OFFSET 0.000000 0.000000 0.000000
    CHANNELS 6 Xposition Yposition Zposition Zrotation Yrotation Xrotation
    JOINT Chest
    {
        OFFSET 0.000000 1.634758 -0.000000
        CHANNELS 3 Zrotation Yrotation Xrotation
        JOINT Chest2
        {
            OFFSET 0.000000 2.197341 0.000000
            CHANNELS 3 Zrotation Yrotation Xrotation
            JOINT Neck
            {
                OFFSET 0.000000 0.961544 0.000000
                CHANNELS 3 Zrotation Yrotation Xrotation
                JOINT Head
                {
                    OFFSET 0.000000 0.632542 -0.032565
                    CHANNELS 3 Zrotation Yrotation Xrotation
                    End Site
                    {
                        OFFSET -0.000001 0.439502 2.922845
                    }
                }
            }
            JOINT LeftCollar
            {
                OFFSET 0.167536 0.778237 -0.168280
                CHANNELS 3 Zrotation Yrotation Xrotation
                JOINT LeftShoulder
                {
                    OFFSET 0.831514 -0.002900 0.006458
                    CHANNELS 3 Zrotation Yrotation Xrotation
                    JOINT LeftElbow
                    {
                        OFFSET 2.272872 -0.026639 0.059314
                        CHANNELS 3 Zrotation Yrotation Xrotation
                        JOINT LeftWrist
                        {
                            OFFSET 2.081982 -0.024402 0.054333
                            CHANNELS 3 Zrotation Yrotation Xrotation
                            JOINT LeftHandThumb1
                            {
                                OFFSET 0.218903 -0.128645 0.283837
                                CHANNELS 3 Zrotation Yrotation Xrotation
                                JOINT LeftHandThumb2
                                {
                                    OFFSET 0.137157 -0.025101 0.077902
                                    CHANNELS 3 Zrotation Yrotation Xrotation
                                    JOINT LeftHandThumb3
                                    {
                                        OFFSET 0.163592 -0.061323 0.054922
                                        CHANNELS 3 Zrotation Yrotation Xrotation
                                        End Site
                                        {
                                            OFFSET 0.242814 -0.064473 0.093387
                                        }
                                    }
                                }
                            }
                            JOINT LeftHandFore1
                            {
                                OFFSET 0.767340 -0.016076 0.196678
                                CHANNELS 3 Zrotation Yrotation Xrotation
                                JOINT LeftHandFore2
                                {
                                    OFFSET 0.194910 -0.087741 0.036151
                                    CHANNELS 3 Zrotation Yrotation Xrotation
                                    JOINT LeftHandFore3
                                    {
                                        OFFSET 0.092875 -0.089218 0.013319
                                        CHANNELS 3 Zrotation Yrotation Xrotation
                                        End Site
                                        {
                                            OFFSET 0.097281 -0.166262 0.016137
                                        }
                                    }
                                }
                            }
                            JOINT LeftHandMiddle1
                            {
                                OFFSET 0.709887 -0.008320 0.018526
                                CHANNELS 3 Zrotation Yrotation Xrotation
                                JOINT LeftHandMiddle2
                                {
                                    OFFSET 0.224654 -0.096229 0.018290
                                    CHANNELS 3 Zrotation Yrotation Xrotation
                                    JOINT LeftHandMiddle3
                                    {
                                        OFFSET 0.112279 -0.093619 0.003456
                                        CHANNELS 3 Zrotation Yrotation Xrotation
                                        End Site
                                        {
                                            OFFSET 0.124215 -0.200489 0.002258
                                        }
                                    }
                                }
                            }
                            JOINT LeftHandRing1
                            {
                                OFFSET 0.743817 -0.005823 -0.153668
                                CHANNELS 3 Zrotation Yrotation Xrotation
                                JOINT LeftHandRing2
                                {
                                    OFFSET 0.318812 -0.149696 -0.026139
                                    CHANNELS 3 Zrotation Yrotation Xrotation
                                    JOINT LeftHandRing3
                                    {
                                        OFFSET 0.098079 -0.093764 -0.013936
                                        CHANNELS 3 Zrotation Yrotation Xrotation
                                        End Site
                                        {
                                            OFFSET 0.052405 -0.107176 -0.013671
                                        }
                                    }
                                }
                            }
                            JOINT LeftHandLittle1
                            {
                                OFFSET 0.689408 -0.053302 -0.308304
                                CHANNELS 3 Zrotation Yrotation Xrotation
                                JOINT LeftHandLittle2
                                {
                                    OFFSET 0.175349 -0.075526 -0.040032
                                    CHANNELS 3 Zrotation Yrotation Xrotation
                                    JOINT LeftHandLittle3
                                    {
                                        OFFSET 0.079813 -0.085301 -0.029154
                                        CHANNELS 3 Zrotation Yrotation Xrotation
                                        End Site
                                        {
                                            OFFSET 0.098803 -0.155258 -0.049208
                                        }
                                    }
                                }
                            }
                        }
                    }
                }
            }
            JOINT RightCollar
            {
                OFFSET -0.167536 0.778237 -0.168280
                CHANNELS 3 Zrotation Yrotation Xrotation
                JOINT RightShoulder
                {
                    OFFSET -0.831514 -0.002900 0.006457
                    CHANNELS 3 Zrotation Yrotation Xrotation
                    JOINT RightElbow
                    {
                        OFFSET -2.272872 -0.026639 0.059313
                        CHANNELS 3 Zrotation Yrotation Xrotation
                        JOINT RightWrist
                        {
                            OFFSET -2.081982 -0.024402 0.054331
                            CHANNELS 3 Zrotation Yrotation Xrotation
                            JOINT RightHandThumb1
                            {
                                OFFSET -0.218911 -0.128571 0.283837
                                CHANNELS 3 Zrotation Yrotation Xrotation
                                JOINT RightHandThumb2
                                {
                                    OFFSET -0.137157 -0.025101 0.077902
                                    CHANNELS 3 Zrotation Yrotation Xrotation
                                    JOINT RightHandThumb3
                                    {
                                        OFFSET -0.167455 -0.054447 0.050337
                                        CHANNELS 3 Zrotation Yrotation Xrotation
                                        End Site
                                        {
                                            OFFSET -0.236691 -0.075431 0.100619
                                        }
                                    }
                                }
                            }
                            JOINT RightHandFore1
                            {
                                OFFSET -0.767344 -0.015991 0.196679
                                CHANNELS 3 Zrotation Yrotation Xrotation
                                JOINT RightHandFore2
                                {
                                    OFFSET -0.194933 -0.087698 0.036149
                                    CHANNELS 3 Zrotation Yrotation Xrotation
                                    JOINT RightHandFore3
                                    {
                                        OFFSET -0.090640 -0.087944 0.028502
                                        CHANNELS 3 Zrotation Yrotation Xrotation
                                        End Site
                                        {
                                            OFFSET -0.093835 -0.164335 0.039444
                                        }
                                    }
                                }
                            }
                            JOINT RightHandMiddle1
                            {
                                OFFSET -0.709887 -0.008302 0.018525
                                CHANNELS 3 Zrotation Yrotation Xrotation
                                JOINT RightHandMiddle2
                                {
                                    OFFSET -0.224640 -0.096249 0.018292
                                    CHANNELS 3 Zrotation Yrotation Xrotation
                                    JOINT RightHandMiddle3
                                    {
                                        OFFSET -0.111334 -0.092707 0.019863
                                        CHANNELS 3 Zrotation Yrotation Xrotation
                                        End Site
                                        {
                                            OFFSET -0.122377 -0.198673 0.034395
                                        }
                                    }
                                }
                            }
                            JOINT RightHandRing1
                            {
                                OFFSET -0.743819 -0.005785 -0.153669
                                CHANNELS 3 Zrotation Yrotation Xrotation
                                JOINT RightHandRing2
                                {
                                    OFFSET -0.318823 -0.149673 -0.026138
                                    CHANNELS 3 Zrotation Yrotation Xrotation
                                    JOINT RightHandRing3
                                    {
                                        OFFSET -0.098490 -0.094126 -0.006716
                                        CHANNELS 3 Zrotation Yrotation Xrotation
                                        End Site
                                        {
                                            OFFSET -0.053032 -0.107703 -0.002821
                                        }
                                    }
                                }
                            }
                            JOINT RightHandLittle1
                            {
                                OFFSET -0.689403 -0.053298 -0.308303
                                CHANNELS 3 Zrotation Yrotation Xrotation
                                JOINT RightHandLittle2
                                {
                                    OFFSET -0.175354 -0.075522 -0.040033
                                    CHANNELS 3 Zrotation Yrotation Xrotation
                                    JOINT RightHandLittle3
                                    {
                                        OFFSET -0.081270 -0.086376 -0.020735
                                        CHANNELS 3 Zrotation Yrotation Xrotation
                                        End Site
                                        {
                                            OFFSET -0.102810 -0.158268 -0.025883
                                        }
                                    }
                                }
                            }
                        }
                    }
                }
            }
        }
    }
    JOINT LeftHip
    {
        OFFSET 0.685143 0.673822 -0.044491
        CHANNELS 3 Zrotation Yrotation Xrotation
        JOINT LeftKnee
        {
            OFFSET 0.085364 -3.750208 0.017676
            CHANNELS 3 Zrotation Yrotation Xrotation
            JOINT LeftAnkle
            {
                OFFSET 0.094583 -4.155206 0.019585
                CHANNELS 3 Zrotation Yrotation Xrotation
                JOINT LeftToe
                {
                    OFFSET -0.000000 -0.395925 0.621478
                    CHANNELS 3 Zrotation Yrotation Xrotation
                    End Site
                    {
                        OFFSET -0.000000 -0.077878 0.321152
                    }
                }
            }
        }
    }
    JOINT RightHip
    {
        OFFSET -0.685143 0.673822 -0.044492
        CHANNELS 3 Zrotation Yrotation Xrotation
        JOINT RightKnee
        {
            OFFSET -0.085364 -3.750208 0.017677
            CHANNELS 3 Zrotation Yrotation Xrotation
            JOINT RightAnkle
            {
                OFFSET -0.094583 -4.155206 0.019585
                CHANNELS 3 Zrotation Yrotation Xrotation
                JOINT RightToe
                {
                    OFFSET -0.000000 -0.395925 0.621478
                    CHANNELS 3 Zrotation Yrotation Xrotation
                    End Site
                    {
                        OFFSET -0.000000 -0.077878 0.321152
                    }
                }
            }
        }
    }
}
MOTION
Frames: 5
Frame Time: 0.033333
0.173592 8.620396 0.296708 -179.582733 -1.413043 166.824753 0.086038 -0.761965 3.270797 -0.007537 0.118264 -3.645252 7.350351 0.085672 1.029039 -0.019844 0.385480 4.172636 -12.336147 -7.874642 -0.001665 -57.689232 -10.446525 13.051730 0.194604 -39.412121 -0.550683 4.472049 -2.140215 8.310086 0.000003 0.000005 0.000007 -0.000002 -0.000007 0.000004 -0.000003 -0.000000 -0.000007 0.000002 0.000002 -0.000005 -0.000004 -0.000002 0.000007 -0.000001 -0.000000 -0.000002 -0.000002 -0.000000 -0.000002 -0.000002 -0.000000 0.000002 -0.000002 -0.000003 -0.000006 0.000004 -0.000003 -0.000009 0.000002 0.000002 0.000005 -0.000003 -0.000003 -0.000002 0.000004 -0.000003 0.000002 0.000000 0.000002 -0.000006 -0.000003 -0.000000 0.000007 13.862177 -1.204683 -0.024601 57.729164 -19.103790 0.580468 -0.124930 32.791805 -0.431884 -3.305535 0.864602 0.178001 -0.000003 -0.000000 -0.000006 -0.000000 0.000007 0.000004 0.000002 -0.000002 0.000005 -0.000001 0.000002 -0.000002 0.000003 -0.000000 -0.000002 -0.000002 0.000002 0.000001 0.000001 0.000002 -0.000001 -0.000005 0.000003 0.000001 0.000003 -0.000003 0.000000 -0.000001 0.000002 -0.000001 0.000000 -0.000000 0.000000 -0.000002 -0.000000 -0.000000 -0.000003 0.000002 0.000001 -0.000000 -0.000000 -0.000001 -0.000006 0.000005 -0.000001 0.048685 0.188040 17.785740 0.053793 0.370673 16.512262 0.431212 0.750254 -27.490892 -0.000000 -0.000000 -0.000002 2.570715 0.117530 -3.472566 -0.125258 -0.557716 25.318127 -2.498035 -4.123091 -15.856409 -0.000000 -0.000001 0.000002
0.173557 8.620423 0.296709 -179.582733 -1.413042 166.824738 0.086039 -0.761964 3.270859 -0.007535 0.118263 -3.645247 7.350350 0.085693 1.029054 -0.019849 0.385519 4.172664 -12.336185 -7.874599 -0.001666 -57.689110 -10.446968 13.050953 0.194595 -39.410221 -0.550650 4.473357 -2.138728 8.310137 -0.000006 -0.000003 0.000012 -0.000004 -0.000000 -0.000005 -0.000001 -0.000002 -0.000004 -0.000009 0.000003 -0.000002 -0.000004 -0.000000 -0.000002 0.000003 -0.000000 0.000003 -0.000006 0.000010 -0.000003 0.000001 0.000002 -0.000002 -0.000006 -0.000000 0.000001 0.000003 -0.000000 -0.000001 -0.000003 0.000002 -0.000000 -0.000002 -0.000003 0.000001 0.000002 -0.000000 -0.000006 -0.000005 0.000002 0.000003 -0.000003 -0.000003 -0.000005 13.861954 -1.204633 -0.024601 57.728741 -19.105457 0.580377 -0.124959 32.795597 -0.431949 -3.307110 0.863819 0.176495 -0.000001 -0.000002 -0.000006 -0.000001 -0.000003 0.000005 -0.000003 0.000005 0.000003 -0.000002 -0.000007 0.000004 -0.000000 -0.000000 0.000000 0.000003 0.000002 0.000001 0.000004 -0.000000 0.000003 -0.000005 0.000005 0.000001 0.000002 -0.000002 -0.000000 0.000003 -0.000005 0.000005 -0.000001 -0.000000 -0.000001 -0.000001 -0.000002 0.000001 0.000011 0.000005 0.000002 -0.000003 -0.000002 0.000000 -0.000003 0.000002 -0.000004 0.048719 0.188111 17.787172 0.053775 0.370612 16.509468 0.431278 0.750183 -27.489517 0.000000 -0.000000 0.000004 2.570515 0.117901 -3.471448 -0.125238 -0.557675 25.316097 -2.497702 -4.123277 -15.855556 0.000000 0.000001 0.000000
0.173453 8.620502 0.296712 -179.582733 -1.413042 166.824738 0.086042 -0.761964 3.270964 -0.007532 0.118263 -3.645125 7.350349 0.085757 1.029077 -0.019855 0.385642 4.172690 -12.336294 -7.874496 -0.001666 -57.688667 -10.448274 13.048661 0.194520 -39.404667 -0.550542 4.477243 -2.134320 8.310296 -0.000011 0.000009 0.000003 0.000001 -0.000002 -0.000003 -0.000002 -0.000002 0.000000 -0.000007 0.000002 -0.000008 -0.000003 -0.000002 0.000004 0.000002 0.000005 -0.000002 -0.000004 -0.000002 -0.000006 0.000001 0.000002 0.000000 -0.000002 -0.000005 -0.000002 -0.000001 -0.000003 -0.000004 0.000000 -0.000000 -0.000002 0.000001 -0.000005 -0.000001 -0.000002 0.000002 -0.000012 -0.000003 -0.000002 0.000007 -0.000003 -0.000000 0.000000 13.861342 -1.204472 -0.024602 57.727413 -19.110395 0.580071 -0.125064 32.807003 -0.432136 -3.311777 0.861512 0.172008 0.000000 -0.000010 0.000000 -0.000002 0.000005 0.000008 0.000002 0.000003 0.000001 -0.000004 -0.000005 -0.000001 -0.000001 0.000002 0.000002 0.000002 0.000002 0.000002 0.000007 0.000003 0.000000 -0.000003 0.000002 -0.000002 0.000001 0.000002 -0.000001 -0.000004 -0.000002 0.000000 -0.000000 0.000002 -0.000003 0.000000 0.000002 0.000000 0.000007 0.000007 -0.000003 0.000000 -0.000002 0.000003 -0.000009 0.000002 -0.000002 0.048830 0.188342 17.791138 0.053725 0.370442 16.501644 0.431478 0.749935 -27.485678 -0.000000 -0.000001 0.000000 2.569920 0.118997 -3.468431 -0.125184 -0.557561 25.310556 -2.496700 -4.123819 -15.853242 -0.000000 -0.000000 0.000007
0.173280 8.620631 0.296718 -179.582733 -1.413041 166.824738 0.086047 -0.761962 3.271152 -0.007526 0.118263 -3.644940 7.350343 0.085864 1.029108 -0.019863 0.385843 4.172764 -12.336520 -7.874295 -0.001671 -57.687916 -10.450478 13.044848 0.194408 -39.395405 -0.550362 4.483644 -2.127039 8.310554 -0.000012 0.000010 0.000006 -0.000001 -0.000002 -0.000002 0.000001 -0.000000 -0.000007 -0.000009 0.000012 -0.000009 0.000001 -0.000003 -0.000006 0.000003 0.000002 0.000003 -0.000009 0.000005 -0.000004 0.000002 -0.000002 -0.000004 -0.000004 0.000002 0.000007 -0.000007 -0.000003 -0.000012 -0.000003 -0.000000 0.000003 -0.000004 -0.000002 -0.000004 -0.000008 -0.000000 -0.000007 0.000001 -0.000005 -0.000000 -0.000002 0.000003 -0.000007 13.860280 -1.204196 -0.024604 57.725254 -19.118597 0.579596 -0.125234 32.825901 -0.432448 -3.319458 0.857704 0.164598 -0.000001 -0.000012 0.000000 -0.000003 -0.000002 0.000003 0.000001 0.000002 0.000006 -0.000002 -0.000007 0.000002 -0.000001 0.000002 0.000000 -0.000001 -0.000000 0.000001 0.000006 -0.000002 0.000002 -0.000009 0.000003 -0.000003 -0.000000 -0.000003 0.000000 0.000004 -0.000000 0.000001 0.000001 -0.000003 0.000002 0.000000 -0.000002 -0.000000 0.000011 0.000005 -0.000003 -0.000001 0.000002 -0.000000 -0.000005 -0.000003 -0.000000 0.049023 0.188739 17.797771 0.053640 0.370156 16.488569 0.431808 0.749514 -27.479254 -0.000000 -0.000001 -0.000005 2.568939 0.120813 -3.463403 -0.125094 -0.557371 25.301327 -2.495049 -4.124724 -15.849379 -0.000000 -0.000000 0.000006
0.173042 8.620811 0.296725 -179.582733 -1.413041 166.824738 0.086053 -0.761960 3.271402 -0.007519 0.118262 -3.644668 7.350340 0.086012 1.029154 -0.019878 0.386124 4.172834 -12.336769 -7.874052 -0.001666 -57.686863 -10.453421 13.039525 0.194249 -39.382877 -0.550117 4.492501 -2.116957 8.310917 -0.000008 0.000003 0.000006 -0.000004 -0.000003 0.000002 -0.000001 0.000002 -0.000002 -0.000010 0.000007 -0.000004 -0.000003 0.000002 -0.000004 0.000000 -0.000000 0.000001 -0.000008 0.000002 -0.000010 -0.000002 -0.000000 0.000001 -0.000003 -0.000002 -0.000002 -0.000002 0.000003 -0.000001 -0.000002 0.000005 -0.000006 -0.000003 -0.000002 0.000001 -0.000012 -0.000000 -0.000004 -0.000005 -0.000002 0.000001 -0.000002 0.000002 -0.000001 13.858882 -1.203827 -0.024598 57.722202 -19.130022 0.578947 -0.125464 32.852295 -0.432887 -3.330100 0.852434 0.154322 -0.000001 -0.000012 -0.000002 0.000001 -0.000002 0.000003 -0.000000 0.000003 0.000005 0.000003 -0.000002 0.000000 0.000004 0.000002 -0.000002 0.000001 0.000003 0.000002 0.000002 0.000003 -0.000000 0.000000 -0.000000 0.000000 -0.000004 0.000002 -0.000000 -0.000002 -0.000002 0.000001 -0.000002 -0.000002 0.000000 -0.000000 0.000003 0.000004 0.000006 0.000010 -0.000003 -0.000004 0.000002 0.000001 -0.000007 -0.000003 -0.000003 0.049308 0.189304 17.806898 0.053524 0.369763 16.470564 0.432261 0.748903 -27.470406 -0.000000 -0.000000 -0.000000 2.567581 0.123325 -3.456305 -0.124967 -0.557103 25.288300 -2.492772 -4.125974 -15.843915 0.000000 0.000002 0.000013
